<?xml version="1.0" encoding="UTF-8"?>
<svg xmlns="http://www.w3.org/2000/svg" xmlns:xlink="http://www.w3.org/1999/xlink" width="96pt" height="96pt" viewBox="0 0 96 96" version="1.1">
<g id="surface11457409">
<path style=" stroke:none;fill-rule:nonzero;fill:rgb(100%,75.686276%,2.745098%);fill-opacity:1;" d="M 94 38 L 86.601562 38 C 86.398438 37.800781 86.398438 37.800781 86.199219 37.601562 C 88 36.199219 89.199219 34 89.199219 31.601562 C 89.199219 27.398438 85.800781 24 81.601562 24 L 67.601562 24 L 67.601562 45.199219 L 67 43.398438 L 61 25.398438 L 60.398438 24 L 49.199219 24 L 48.800781 25.398438 L 47.199219 30.398438 L 47.199219 24 L 18.199219 24 C 14.398438 24 11.601562 27 11.601562 30.800781 C 11.601562 32.601562 12.199219 33.398438 12.601562 34 C 13 34.398438 14.601562 36.398438 15.601562 37.800781 L 0 37.800781 L 0 45.800781 L 19.601562 45.800781 C 23.398438 45.800781 26.398438 42.800781 26.398438 39 C 26.398438 37.199219 25.800781 36.398438 25.398438 35.800781 L 22.398438 31.800781 L 29.398438 31.800781 L 29.398438 45.800781 L 38.601562 45.800781 L 38.601562 31.800781 L 46.601562 31.800781 L 43 43.199219 L 42 46 L 51.199219 46 L 51.601562 44.601562 L 52.601562 42 L 57.398438 42 L 58.398438 44.601562 L 58.800781 46 L 76.800781 46 L 76.800781 41.800781 C 78 43 79.199219 44 80 44.800781 C 80.398438 45 81.199219 46 82.800781 46 L 96 46 L 96 38 Z M 31 52.601562 L 25 70.601562 L 24.601562 72 L 18.398438 72 L 18 70.601562 L 16 65.199219 L 14.199219 70.601562 L 13.601562 72 L 7.199219 72 L 6.800781 70.601562 L 0.800781 52.601562 L 0 50 L 9.398438 50 L 9.800781 51.398438 L 10.398438 53.601562 L 11.199219 51.398438 L 11.800781 50 L 20.199219 50 L 20.601562 51.398438 L 21.398438 53.601562 L 22 51.398438 L 22.398438 50 L 32 50 Z M 82.601562 50 C 78.800781 50 75.800781 53 75.800781 56.800781 C 75.800781 58.601562 76.398438 59.398438 76.800781 60 C 77.199219 60.398438 78.800781 62.398438 80 63.800781 L 71 63.800781 C 71 63.800781 71 63.800781 70.800781 63.800781 L 70.601562 63.601562 C 72.398438 62.199219 73.601562 60 73.601562 57.601562 C 73.601562 53.398438 70.199219 50 66 50 L 52 50 L 52 72 L 51.199219 69.398438 L 45.199219 51.398438 L 44.800781 50 L 33.601562 50 L 33.199219 51.398438 L 27.398438 69.398438 L 26.398438 72 L 35.398438 72 L 35.800781 70.601562 L 36.800781 68 L 41.601562 68 L 42.601562 70.601562 L 43 72 L 61.398438 72 L 61.398438 67.800781 C 62.601562 69 63.800781 70 64.800781 70.800781 C 65.601562 71.601562 66.601562 72 67.800781 72 L 84.398438 72 C 88.199219 72 91.199219 69 91.199219 65.199219 C 91.199219 63.398438 90.601562 62.601562 90.199219 62 L 87.199219 58 L 96 58 L 96 50 Z M 82.601562 50 "/>
<path style=" stroke:none;fill-rule:nonzero;fill:rgb(0%,0%,0%);fill-opacity:1;" d="M 45 26 C 45 26 19.800781 26 18 26 C 15.398438 26 13.398438 28 13.398438 30.800781 C 13.398438 32 13.800781 32.398438 14 32.800781 C 14.601562 33.601562 18.199219 38 18.199219 38 C 18.199219 38.199219 18.398438 38.398438 18.398438 38.601562 C 18.601562 39.398438 18 40 17.199219 40 L 2 40 L 2 44 C 2 44 18.199219 44 19.601562 44 C 22.199219 44 24.398438 42 24.398438 39.199219 C 24.398438 38 24 37.601562 23.800781 37.199219 L 20 32 C 20 31.800781 19.800781 31.601562 19.800781 31.398438 C 19.800781 30.601562 20.398438 30 21.199219 30 L 31.601562 30 L 31.601562 44 L 36.800781 44 L 36.800781 30 L 45.398438 30 L 45.398438 26 Z M 59 26 L 50.601562 26 L 44.800781 44 L 49.800781 44 L 51.199219 40 L 58.800781 40 L 60.199219 44 L 65.199219 44 Z M 52.398438 36 L 54.800781 28.800781 L 57.199219 36 Z M 86.601562 40 C 85.800781 40 85.398438 39.601562 85 39.199219 C 84 38 82.800781 37 82.800781 37 C 85.199219 36.398438 87 34.199219 87 31.601562 C 87 28.398438 84.398438 26 81.398438 26 L 69.398438 26 L 69.398438 44 L 74.800781 44 L 74.800781 37.199219 C 74.800781 37.199219 79.398438 41.601562 81.398438 43.398438 C 81.601562 43.601562 82.199219 44 83 44 C 83.601562 44 94 44 94 44 L 94 40 Z M 74.800781 30 L 80 30 C 81.199219 30 82.199219 30.800781 82.199219 32 C 82.199219 33.199219 81.199219 34 80 34 L 74.800781 34 Z M 24 52 L 21.398438 59.800781 L 18.800781 52 L 13.199219 52 L 10.398438 59.800781 L 7.800781 52 L 2.800781 52 L 8.800781 70 L 12.199219 70 L 16 59 L 19.800781 70 L 23.199219 70 L 29.199219 52 Z M 85.398438 56 L 94 56 L 94 52 C 94 52 84.398438 52 82.601562 52 C 80 52 77.800781 54 77.800781 56.800781 C 77.800781 58 78.199219 58.398438 78.398438 58.800781 C 79 59.398438 82.800781 63.800781 82.800781 63.800781 C 82.800781 64 83 64.199219 83 64.398438 C 83 65.199219 82.398438 65.800781 81.800781 65.800781 C 81.800781 65.800781 71.398438 65.800781 71.199219 65.800781 C 70.398438 65.800781 70 65.398438 69.601562 65 C 68.601562 63.800781 67.601562 62.800781 67.601562 62.800781 C 70 62.199219 71.800781 60 71.800781 57.398438 C 71.800781 54.199219 69.199219 51.800781 66.199219 51.800781 L 54 51.800781 L 54 69.800781 L 59.398438 69.800781 L 59.398438 63 C 59.398438 63 64 67.398438 66 69.199219 C 66.199219 69.398438 66.800781 69.800781 67.601562 69.800781 C 68.199219 69.800781 83.199219 69.800781 84.199219 69.800781 C 86.800781 69.800781 89 68 89 65 C 89 63.800781 88.601562 63.398438 88.398438 63 L 84.398438 58 C 84.398438 57.800781 84.199219 57.601562 84.199219 57.398438 C 84.199219 56.601562 84.800781 56 85.398438 56 Z M 64.601562 60 L 59.398438 60 L 59.398438 56 L 64.601562 56 C 65.800781 56 66.800781 56.800781 66.800781 58 C 66.800781 59.199219 65.800781 60 64.601562 60 Z M 43.398438 52 L 35 52 L 29.199219 70 L 34 70 L 35.398438 66 L 43 66 L 44.398438 70 L 49.398438 70 Z M 36.800781 62 L 39.199219 54.800781 L 41.601562 62 Z M 36.800781 62 "/>
</g>
</svg>
